<?xml version="1.0" encoding="utf-8"?>
<!-- Generator: Adobe Illustrator 23.0.2, SVG Export Plug-In . SVG Version: 6.00 Build 0)  -->
<svg version="1.1" id="Layer_1" xmlns="http://www.w3.org/2000/svg" xmlns:xlink="http://www.w3.org/1999/xlink" x="0px" y="0px"
	 viewBox="0 0 295.9 74.8" style="enable-background:new 0 0 295.9 74.8;" xml:space="preserve">
<style type="text/css">
	.st0{stroke:#000000;stroke-width:0.75;stroke-miterlimit:10;}
	.st1{stroke:#000000;stroke-width:0.5;stroke-miterlimit:10;}
</style>
<title>zonef</title>
<path class="st0" d="M2.8,72.6v0.1h39.9v1.1h-42L42.8,4.4V4.3H3.7V3.1h41.1L2.8,72.6z"/>
<path class="st0" d="M47.6,38.5c0-21.1,13.6-36,31.2-36s31.3,14.9,31.3,36s-13.7,36-31.3,36S47.6,59.6,47.6,38.5z M108.9,38.5
	c0-20.6-13.2-34.9-30.1-34.9s-30,14.3-30,34.9s13.1,34.8,30,34.8S108.9,59,108.9,38.5z"/>
<path class="st0" d="M180.9,2.9h35.3v1.2h-33.9v33.2h32v1.1h-32v34.2h33.9v1.1h-35.3V2.9z"/>
<path class="st0" d="M264.6,3.1h30.9v1.2h-29.8v33.4h28.6v1.1h-28.6v34.9h-1.2V3.1z"/>
<path class="st1" d="M168.4,24.9v48.9h-1.7V24.9c0-14.5-8.6-23-21.8-23h-0.1c-13.2,0-21.8,8.4-21.8,23v48.9h-1.7V24.9
	c0-15.4,9.4-24.7,23.5-24.7h0.1C159,0.2,168.4,9.5,168.4,24.9z"/>
</svg>
