<svg id="Layer_1" data-name="Layer 1" xmlns="http://www.w3.org/2000/svg" viewBox="0 0 295.91 74.84"><defs><style>.cls-1,.cls-2{stroke:#000;stroke-miterlimit:10;}.cls-1{stroke-width:0.75px;}.cls-2{stroke-width:0.5px;}</style></defs><title>zonef</title><path class="cls-1" d="M5.52,189.83v.1H45.4v1.14h-42l42.13-69.43v-.09H6.41V120.4H47.55Z" transform="translate(-2.7 -117.27)"/><path class="cls-1" d="M50.33,155.74c0-21.15,13.63-36,31.19-36s31.29,14.85,31.29,36-13.72,36-31.29,36S50.33,176.88,50.33,155.74Zm61.31,0c0-20.57-13.18-34.86-30.12-34.86s-30,14.29-30,34.86,13.08,34.85,30,34.85S111.64,176.31,111.64,155.74Z" transform="translate(-2.7 -117.27)"/><path class="cls-1" d="M183.59,120.18h35.27v1.15H185v33.24h32v1.15H185v34.2h33.91v1.15H183.59Z" transform="translate(-2.7 -117.27)"/><path class="cls-1" d="M267.31,120.4h30.92v1.15H268.47V155h28.6v1.15h-28.6v34.95h-1.16Z" transform="translate(-2.7 -117.27)"/><path class="cls-2" d="M171.07,142.17v48.9h-1.72v-48.9c0-14.54-8.58-23-21.77-23h-.14c-13.2,0-21.77,8.45-21.77,23v48.9H124v-48.9c0-15.37,9.37-24.65,23.49-24.65h.14C161.7,117.52,171.07,126.8,171.07,142.17Z" transform="translate(-2.7 -117.27)"/></svg>